<?xml version="1.0" encoding="UTF-8"?>
<svg id="Layer_1" xmlns="http://www.w3.org/2000/svg" version="1.1" viewBox="0 0 47.5 49">
  <!-- Generator: Adobe Illustrator 29.2.1, SVG Export Plug-In . SVG Version: 2.1.0 Build 116)  -->
  <defs>
    <style>
      .st0 {
        fill: #221816;
      }

      .st1 {
        fill: #fff;
        fill-rule: evenodd;
      }

      .st2 {
        fill: #231f20;
      }
    </style>
  </defs>
  <g>
    <circle class="st0" cx="23.7" cy="24.5" r="19.1"/>
    <path class="st2" d="M21.5,26.2"/>
  </g>
  <g>
    <path class="st1" d="M24.7,28.4c0,.5-.4,1-1,1h-9c-1.9,0-3.5-1.6-3.5-3.5v-7.7c0-1.9,1.6-3.5,3.5-3.5h18c1.9,0,3.5,1.6,3.5,3.5v6.4c0,.5-.4,1-1,1s-1-.4-1-1v-6.4c0-.9-.7-1.6-1.6-1.6H14.7c-.9,0-1.6.7-1.6,1.6v7.7c0,.9.7,1.6,1.6,1.6h9c.5,0,1,.4,1,1Z"/>
    <path class="st1" d="M26.3,30.9c.4-.4,1-.4,1.4,0l1.9,1.9,4.5-4.5c.4-.4,1-.4,1.4,0,.4.4.4,1,0,1.4l-5.1,5.1c-.2.2-.4.3-.7.3s-.5-.1-.7-.3l-2.6-2.6c-.4-.4-.4-1,0-1.4Z"/>
    <path class="st1" d="M24.4,21.2c.4.4.4,1,0,1.4h0c-.4.4-1,.4-1.4,0-.4-.4-.4-1,0-1.4h0c.4-.4,1-.4,1.4,0Z"/>
    <path class="st1" d="M29.5,21.2c.4.4.4,1,0,1.4h0c-.4.4-1,.4-1.4,0s-.4-1,0-1.4h0c.4-.4,1-.4,1.4,0Z"/>
    <path class="st1" d="M19.3,21.2c.4.4.4,1,0,1.4h0c-.4.4-1,.4-1.4,0s-.4-1,0-1.4h0c.4-.4,1-.4,1.4,0Z"/>
  </g>
</svg>