<?xml version="1.0" encoding="UTF-8"?>
<svg id="Layer_1" xmlns="http://www.w3.org/2000/svg" version="1.1" viewBox="0 0 47.5 49">
  <!-- Generator: Adobe Illustrator 29.2.1, SVG Export Plug-In . SVG Version: 2.1.0 Build 116)  -->
  <defs>
    <style>
      .st0 {
        fill: #fd0;
      }

      .st1 {
        stroke: #000;
        stroke-miterlimit: 10;
        stroke-width: .7px;
      }
    </style>
  </defs>
  <g>
    <circle class="st0" cx="23.7" cy="24.5" r="19.1"/>
    <path class="st0" d="M21.5,26.2"/>
  </g>
  <path class="st1" d="M32.4,26.5c0,0,0,.1,0,.2,0,2.1,0,4.2,0,6.3,0,.7-.2,1.3-.7,1.8-.4.4-.9.6-1.5.7-.1,0-.3,0-.4,0-1.3,0-2.6,0-3.9,0-.3,0-.5-.1-.6-.4,0,0,0-.2,0-.3,0-1.5,0-3.1,0-4.6,0,0,0-.2,0-.2,0,0-.2,0-.2,0-.8,0-1.7,0-2.5,0,0,0,0,0-.1,0,0,0,0,.1,0,.2,0,1.5,0,3.1,0,4.6,0,.3-.2.7-.7.7-.4,0-.9,0-1.3,0-.9,0-1.8,0-2.7,0-1,0-1.7-.4-2.2-1.3-.2-.4-.3-.8-.3-1.2,0-2.1,0-4.2,0-6.3,0,0,0-.1,0-.2,0,0-.1,0-.2,0-.8,0-1.7-.4-2-1.2-.1-.3-.2-.5-.2-.8,0-.5.2-1,.6-1.4.9-.9,1.7-1.7,2.6-2.6,2.1-2.1,4.2-4.2,6.3-6.3.3-.3.5-.5.9-.6.3-.1.7-.1,1,0,.4,0,.8.3,1.1.6.6.6,1.2,1.1,1.7,1.7.2.2.5.5.7.7,0,0,0,0,0,0,0,0,0,0,0,0,0-.7,0-1.3,0-2,0-.1,0-.3,0-.4,0-.4.3-.6.7-.6.3,0,.5,0,.8,0,.6,0,1.2,0,1.8,0,.3,0,.6.2.7.5,0,.1,0,.2,0,.3,0,1.4,0,2.8,0,4.1,0,.7,0,1.4,0,2.1,0,0,0,0,0,.1.8.8,1.6,1.6,2.4,2.4.4.4.6.9.6,1.4,0,.7-.3,1.3-1,1.7-.4.2-.8.3-1.3.3,0,0,0,0,0,0ZM21,34.2s0,0,0,0c0-1.5,0-2.9,0-4.4,0-.2,0-.3,0-.5,0,0,0-.2,0-.2.1-.2.4-.3.6-.3,1.3,0,2.6,0,3.9,0,0,0,.2,0,.3,0,.3,0,.6.3.6.6,0,.1,0,.2,0,.3,0,1.5,0,3,0,4.5,0,0,0,0,0,.1,0,0,0,0,0,0,1.2,0,2.4,0,3.6,0,.2,0,.3,0,.5-.2.4-.2.5-.6.5-1,0-1.6,0-3.1,0-4.7s0-1.7,0-2.6c0,0,0,0,0,0-.7-.7-1.5-1.5-2.2-2.2-1.6-1.6-3.2-3.3-4.9-4.9,0,0-.1-.1-.2-.2,0,0,0,.1-.1.1-1.2,1.2-2.5,2.5-3.7,3.7-1.1,1.1-2.3,2.3-3.4,3.4,0,0,0,.1,0,.2,0,2.4,0,4.8,0,7.1,0,.2,0,.3,0,.5.1.4.6.7.9.7,1.2,0,2.3,0,3.5,0,0,0,0,0,.1,0ZM23.7,14.8s0,0,0,0c-.1,0-.2,0-.3,0-.1,0-.2.1-.3.2-1.1,1.1-2.3,2.3-3.4,3.4-1.8,1.8-3.6,3.6-5.4,5.4-.2.2-.3.4-.3.7,0,.3.1.5.4.6.3.2.7.1,1-.2,1.3-1.3,2.7-2.7,4-4,1.3-1.3,2.6-2.6,3.9-3.9,0,0,.2-.1.3-.2.3,0,.5,0,.7.2,2.6,2.6,5.2,5.2,7.9,7.9,0,0,.2.1.3.2.4.2.9,0,1-.4,0-.3,0-.6-.2-.9-1.8-1.8-3.7-3.7-5.5-5.5-1.1-1.1-2.2-2.2-3.4-3.4-.2-.2-.4-.3-.6-.3ZM30.4,14.8h-1.5s0,0,0,0c0,1,0,1.9,0,2.9,0,0,0,0,0,.1.5.5.9.9,1.4,1.4,0,0,0,0,0,0v-4.5Z"/>
</svg>