<?xml version="1.0" encoding="UTF-8"?>
<svg id="Layer_1" xmlns="http://www.w3.org/2000/svg" version="1.1" viewBox="0 0 47.5 49">
  <!-- Generator: Adobe Illustrator 29.2.1, SVG Export Plug-In . SVG Version: 2.1.0 Build 116)  -->
  <defs>
    <style>
      .st0 {
        fill: #fd0;
      }

      .st1 {
        fill: #fff;
      }

      .st2 {
        fill: none;
      }

      .st3 {
        fill: #231f20;
      }
    </style>
  </defs>
  <g>
    <circle class="st0" cx="23.7" cy="24.5" r="19.1"/>
    <path class="st3" d="M21.5,26.2"/>
  </g>
  <path class="st3" d="M33,15.9H14.5c-1.9,0-3.5,1.6-3.5,3.5v10.3c0,1.9,1.6,3.5,3.5,3.5h18.5c1.9,0,3.5-1.6,3.5-3.5v-10.3c0-1.9-1.6-3.5-3.5-3.5ZM34.4,29.7c0,.7-.6,1.3-1.3,1.3h-6.6v-13h6.6c.7,0,1.3.6,1.3,1.3v10.3Z"/>
  <g>
    <path class="st1" d="M25.9,31h0s.2,0,.2,0c0,0-.1,0-.2,0Z"/>
    <path class="st1" d="M32.6,24.5c0,3.6-2.9,6.5-6.5,6.5h6.9c.7,0,1.3-.6,1.3-1.3v-10.3c0-.7-.6-1.3-1.3-1.3h-6.9c3.6,0,6.5,2.9,6.5,6.5Z"/>
    <path class="st2" d="M24.9,30.9h0c0,.1,1,.1,1,.1h0c-.3,0-.7,0-1-.1Z"/>
    <circle class="st0" cx="26.1" cy="24.5" r="6.5"/>
  </g>
</svg>