<?xml version="1.0" encoding="UTF-8"?>
<svg id="Layer_1" xmlns="http://www.w3.org/2000/svg" version="1.1" viewBox="0 0 47.5 49">
  <!-- Generator: Adobe Illustrator 29.2.1, SVG Export Plug-In . SVG Version: 2.1.0 Build 116)  -->
  <defs>
    <style>
      .st0 {
        fill: #221816;
      }

      .st1 {
        fill: #fd0;
      }

      .st2 {
        fill: #fff;
      }

      .st3 {
        fill: #231f20;
      }

      .st4 {
        fill: #fbed21;
      }
    </style>
  </defs>
  <g>
    <circle class="st0" cx="23.7" cy="24.5" r="19.1"/>
    <path class="st0" d="M21.5,26.2"/>
  </g>
  <g>
    <path class="st3" d="M23.2,24.5"/>
    <g>
      <path class="st4" d="M35.9,24.4s0,0,0,0h0s0,0,0,0"/>
      <path class="st1" d="M39,22.9c0-.7-.3-1.4-.7-2-.7-1.2-1.8-2.2-3.1-2.7-.7-.2-1.4-.4-2.1-.4-1.6,0-3.2.7-4.3,1.9-1.8-2-4.9-2.5-7.3-1.1-.6.4-1.2.8-1.6,1.4-1.1-1.2-2.7-2-4.3-2.1-1.5-.1-2.9.3-4.2,1.1-1.2.8-2.1,1.9-2.6,3.2-.5,1.4-.6,2.9-.1,4.3.4,1.3,1.3,2.5,2.4,3.4,1.2.9,2.6,1.3,4.1,1.3.5,0,1,0,1.5-.2.1,0,.3,0,.4-.1-.2,0-.4.1-.6.1-.9,0-1.6-.7-1.6-1.6s.6-1.4,1.3-1.5c-.2,0-.4,0-.6.1-.8.1-1.6,0-2.3-.3-1.3-.7-2.1-2.1-1.9-3.5.2-1.4,1.2-2.7,2.6-3,.8-.2,1.6-.1,2.3.2.8.3,1.4,1,1.9,1.7.1.2.2.4.3.6,0,.2.1.4.2.6.2.4.6.6,1,.8.8.2,1.6-.3,1.9-1,0-.2,0-.4.1-.7,0-.4.2-.7.5-1.1.5-.6,1.2-1,1.9-1.1,1.5-.2,2.9.9,3.1,2.4,0,.4.1.7.4,1,.3.3.7.5,1.1.6.4,0,.9-.1,1.2-.4.3-.3.4-.6.5-1,.2-1.5,1.6-2.6,3.1-2.5,1.5.1,2.6,1.4,2.5,2.9,0,.2,0,.3,0,.5,0-.9.7-1.6,1.6-1.6s1.6.7,1.6,1.6,0,0,0,0c0,0,0-.1,0-.2,0-.4,0-.8,0-1.2"/>
      <path class="st2" d="M39,24.3c0,.9-.7,1.6-1.6,1.6s-1.6-.7-1.6-1.6.7-1.6,1.6-1.6,1.6.7,1.6,1.6"/>
      <path class="st2" d="M18.1,29.4c0,.9-.7,1.5-1.5,1.5s-1.6-.7-1.6-1.5.7-1.5,1.6-1.5,1.5.7,1.5,1.5"/>
    </g>
  </g>
</svg>