<?xml version="1.0" encoding="UTF-8"?>
<svg id="Layer_1" xmlns="http://www.w3.org/2000/svg" version="1.1" viewBox="0 0 47.5 49">
  <!-- Generator: Adobe Illustrator 29.2.1, SVG Export Plug-In . SVG Version: 2.1.0 Build 116)  -->
  <defs>
    <style>
      .st0 {
        fill: #fd0;
      }

      .st1 {
        fill: #231f20;
      }
    </style>
  </defs>
  <g>
    <circle class="st0" cx="23.7" cy="24.5" r="19.1"/>
    <path class="st1" d="M21.5,26.2"/>
  </g>
  <g>
    <path d="M18.6,27.3c0-1.6-1.3-2.9-2.9-2.9s-2.9,1.3-2.9,2.9,1.3,2.9,2.9,2.9,2.9-1.3,2.9-2.9ZM15.7,28.7c-.8,0-1.4-.6-1.4-1.4s.6-1.4,1.4-1.4,1.4.6,1.4,1.4-.6,1.4-1.4,1.4Z"/>
    <path d="M34.6,27.3c0-1.6-1.3-2.9-2.9-2.9s-2.9,1.3-2.9,2.9,1.3,2.9,2.9,2.9,2.9-1.3,2.9-2.9ZM31.7,28.7c-.8,0-1.4-.6-1.4-1.4s.6-1.4,1.4-1.4,1.4.6,1.4,1.4-.6,1.4-1.4,1.4Z"/>
    <path d="M31.7,30.2c-.8,0-1.6.2-2.2.6l-5.1-3.2v-4.7h3.6v-1.4c0-2.4-1.9-4.4-4.3-4.4s-4.3,2-4.3,4.4v1.4h3.6v4.7l-5.1,3.2c-.7-.4-1.4-.6-2.2-.6-2.4,0-4.3,2-4.3,4.4v1.4h8.7v-1.4c0-1-.3-2-1-2.8l4.6-2.9,4.6,2.9c-.6.8-1,1.8-1,2.8v1.4h8.7v-1.4c0-2.4-1.9-4.4-4.3-4.4ZM23.7,18.5c1.6,0,2.9,1.3,2.9,2.9h-5.8c0-1.6,1.3-2.9,2.9-2.9ZM12.8,34.5c0-1.6,1.3-2.9,2.9-2.9s2.9,1.3,2.9,2.9h-5.8ZM28.8,34.5c0-1.6,1.3-2.9,2.9-2.9s2.9,1.3,2.9,2.9h-5.8Z"/>
    <path d="M26.6,14.2c0-1.6-1.3-2.9-2.9-2.9s-2.9,1.3-2.9,2.9,1.3,2.9,2.9,2.9,2.9-1.3,2.9-2.9ZM23.7,15.6c-.8,0-1.4-.6-1.4-1.4s.6-1.4,1.4-1.4,1.4.6,1.4,1.4-.6,1.4-1.4,1.4Z"/>
  </g>
</svg>