<?xml version="1.0" encoding="UTF-8"?>
<svg id="Layer_1" xmlns="http://www.w3.org/2000/svg" version="1.1" xmlns:xlink="http://www.w3.org/1999/xlink" viewBox="0 0 47.5 49">
  <!-- Generator: Adobe Illustrator 29.2.1, SVG Export Plug-In . SVG Version: 2.1.0 Build 116)  -->
  <defs>
    <style>
      .st0 {
        fill: #fd0;
      }

      .st1 {
        stroke: #000;
        stroke-linecap: round;
        stroke-linejoin: round;
        stroke-width: 2.2px;
      }

      .st1, .st2 {
        fill: none;
      }

      .st3 {
        clip-path: url(#clippath-1);
      }

      .st4 {
        fill: #231f20;
      }

      .st5 {
        clip-path: url(#clippath);
      }
    </style>
    <clipPath id="clippath">
      <circle class="st2" cx="23.7" cy="24.6" r="19.1"/>
    </clipPath>
    <clipPath id="clippath-1">
      <rect class="st2" x="-.3" y="5" width="37.9" height="43.4"/>
    </clipPath>
  </defs>
  <g>
    <circle class="st0" cx="23.8" cy="24.4" r="19.1"/>
    <path class="st4" d="M21.5,26.1"/>
  </g>
  <g class="st5">
    <g id="g606">
      <g id="g608">
        <g class="st3">
          <g id="g610">
            <g id="g616">
              <path id="path618" class="st1" d="M17.5,20.2v6.7c0,1.2,1,2.2,2.2,2.2h10.4c3.3,0,5.9,2.7,5.9,5.9v12.4h-11.9v-13.9h-4.4c-3.7,0-6.7-3-6.7-6.7v-6.7c0-1.2,1-2.2,2.2-2.2s2.2,1,2.2,2.2Z"/>
            </g>
            <g id="g620">
              <path id="path622" class="st1" d="M26.1,25c0,2.3,1.8,4.1,4.1,4.1s4.1-1.8,4.1-4.1-1.8-4.1-4.1-4.1-4.1,1.8-4.1,4.1Z"/>
            </g>
            <g id="g624">
              <path id="path626" class="st1" d="M12.3,15c0,1.6,1.3,3,3,3s3-1.3,3-3-1.3-3-3-3-3,1.3-3,3Z"/>
            </g>
            <g id="g628">
              <path id="path630" class="st1" d="M15.3,12v-5.9"/>
            </g>
            <g id="g632">
              <path id="path634" class="st1" d="M23.5,15c0,1.6,1.3,3,3,3s3-1.3,3-3-1.3-3-3-3-3,1.3-3,3Z"/>
            </g>
            <g id="g636">
              <path id="path638" class="st1" d="M26.4,12v-5.9"/>
            </g>
          </g>
        </g>
      </g>
    </g>
  </g>
</svg>