<?xml version="1.0" encoding="UTF-8"?>
<svg id="Layer_1" xmlns="http://www.w3.org/2000/svg" version="1.1" viewBox="0 0 47.5 49">
  <!-- Generator: Adobe Illustrator 29.2.1, SVG Export Plug-In . SVG Version: 2.1.0 Build 116)  -->
  <defs>
    <style>
      .st0 {
        fill: #fd0;
      }

      .st1 {
        fill: #231f20;
      }

      .st2 {
        fill-rule: evenodd;
      }
    </style>
  </defs>
  <g>
    <circle class="st0" cx="23.7" cy="24.5" r="19.1"/>
    <path class="st1" d="M21.5,26.2"/>
  </g>
  <g id="Icon">
    <path class="st2" d="M28.5,23.3v2.3c0,1.7,1.4,3.1,3.1,3.1h2.3c1.7,0,3.1-1.4,3.1-3.1v-2.3c0-1.7-1.4-3.1-3.1-3.1h-2.3c-1.7,0-3.1,1.4-3.1,3.1ZM30.2,23.3c0-.8.6-1.4,1.4-1.4h2.3c.8,0,1.4.6,1.4,1.4v2.3c0,.8-.6,1.4-1.4,1.4h-2.3c-.8,0-1.4-.6-1.4-1.4v-2.3Z"/>
    <path class="st2" d="M12.7,15.4v2.3c0,1.7,1.4,3.1,3.1,3.1h2.3c1.7,0,3.1-1.4,3.1-3.1v-2.3c0-1.7-1.4-3.1-3.1-3.1h-2.3c-1.7,0-3.1,1.4-3.1,3.1ZM14.4,15.4c0-.8.6-1.4,1.4-1.4h2.3c.8,0,1.4.6,1.4,1.4v2.3c0,.8-.6,1.4-1.4,1.4h-2.3c-.8,0-1.4-.6-1.4-1.4v-2.3Z"/>
    <path class="st2" d="M12.7,31.3v2.3c0,1.7,1.4,3.1,3.1,3.1h2.3c1.7,0,3.1-1.4,3.1-3.1v-2.3c0-1.7-1.4-3.1-3.1-3.1h-2.3c-1.7,0-3.1,1.4-3.1,3.1ZM14.4,31.3c0-.8.6-1.4,1.4-1.4h2.3c.8,0,1.4.6,1.4,1.4v2.3c0,.8-.6,1.4-1.4,1.4h-2.3c-.8,0-1.4-.6-1.4-1.4v-2.3Z"/>
    <path class="st2" d="M16.9,29.8h0s0,0,0,0c.2,0,.8-.2.8-.9v-1.1c0-.7.3-1.3.7-1.8s1.1-.7,1.8-.7h9c.5,0,.8-.4.8-.8s-.4-.8-.8-.8h-9c-1.1,0-2.2.4-3,1.2-.8.8-1.2,1.9-1.2,3v1.1h0c0,0,0,.1,0,.2,0,.1,0,.2.1.3.1.2.4.4.7.4h0Z"/>
    <path class="st2" d="M32.7,21.9h0s0,0,0,0c.2,0,.8-.2.8-.9v-1.1c0-1.1-.4-2.2-1.2-3-.8-.8-1.9-1.2-3-1.2h-9c-.5,0-.8.4-.8.8s.4.8.8.8h9c.7,0,1.3.3,1.8.7s.7,1.1.7,1.8v1.1h0c0,0,0,.1,0,.2,0,.1,0,.2.1.3.1.2.4.4.7.4Z"/>
    <path class="st2" d="M20.3,33.2h7.9c.3,0,.7-.2.8-.5s0-.7-.2-.9l-2.3-2.3c-.3-.3-.9-.3-1.2,0-.3.3-.3.9,0,1.2l.8.8h-5.9c-.5,0-.8.4-.8.8s.4.8.8.8h0Z"/>
    <path class="st2" d="M27.6,31.8l-2.3,2.3c-.3.3-.3.9,0,1.2.3.3.9.3,1.2,0l2.3-2.3c.3-.3.3-.9,0-1.2-.3-.3-.9-.3-1.2,0h0Z"/>
  </g>
</svg>