<?xml version="1.0" encoding="UTF-8"?>
<svg id="Layer_1" xmlns="http://www.w3.org/2000/svg" version="1.1" viewBox="0 0 47.5 49">
  <!-- Generator: Adobe Illustrator 29.2.1, SVG Export Plug-In . SVG Version: 2.1.0 Build 116)  -->
  <defs>
    <style>
      .st0 {
        fill: #fd0;
      }

      .st1 {
        fill: #231f20;
      }
    </style>
  </defs>
  <g>
    <circle class="st0" cx="23.7" cy="24.5" r="19.1"/>
    <path class="st1" d="M21.5,26.2"/>
  </g>
  <path d="M34.9,23.7l-3.7-1.9,3.7-1.9c.7-.3.7-1.3,0-1.6l-10.8-5.4c-.3-.1-.6-.1-.8,0l-10.8,5.4c-.7.3-.7,1.3,0,1.6l3.7,1.9-3.7,1.9c-.7.3-.7,1.3,0,1.6l3.7,1.9-3.7,1.9c-.7.3-.7,1.3,0,1.6l10.8,5.4c.3.1.6.1.8,0l10.8-5.4c.7-.3.7-1.3,0-1.6l-3.7-1.9,3.7-1.9c.7-.3.7-1.3,0-1.6ZM23.7,14.7l8.7,4.4-8.7,4.4-8.7-4.4,8.7-4.4ZM32.4,29.9l-8.7,4.4-8.7-4.4,3.3-1.7,5,2.5c.3.1.6.1.8,0l5-2.5,3.3,1.7ZM23.7,28.8l-8.7-4.4,3.3-1.7,5,2.5c.3.1.6.1.8,0l5-2.5,3.3,1.7-8.7,4.4Z"/>
</svg>