<?xml version="1.0" encoding="UTF-8"?>
<svg id="Layer_1" xmlns="http://www.w3.org/2000/svg" version="1.1" viewBox="0 0 47.5 49">
  <!-- Generator: Adobe Illustrator 29.2.1, SVG Export Plug-In . SVG Version: 2.1.0 Build 116)  -->
  <defs>
    <style>
      .st0 {
        fill: #fd0;
      }

      .st1 {
        fill: #231f20;
      }
    </style>
  </defs>
  <g>
    <circle class="st0" cx="23.7" cy="24.5" r="19.1"/>
    <path class="st1" d="M21.5,26.2"/>
  </g>
  <g id="Layer_2">
    <circle cx="33.7" cy="28.6" r="1.1"/>
    <circle cx="31.4" cy="32.1" r="1.1"/>
    <circle cx="34.5" cy="24.5" r="1.1"/>
    <circle cx="27.9" cy="34.5" r="1.1"/>
    <path d="M23.7,34.2c-5.4,0-9.7-4.3-9.7-9.7,0-5.4,4.3-9.7,9.7-9.7,2.2,0,4.4.8,6.1,2.2h-1.8c-.6,0-1.1.5-1.1,1.1s.5,1.1,1.1,1.1h4.3c.6,0,1.1-.5,1.1-1.1v-4.3c0-.6-.5-1.1-1.1-1.1s-1.1.5-1.1,1.1v1.7c-5.1-4.2-12.6-3.5-16.7,1.6-4.2,5.1-3.5,12.6,1.6,16.7,2.1,1.8,4.8,2.7,7.6,2.7.6,0,1.1-.5,1.1-1.1s-.5-1.1-1.1-1.1Z"/>
    <path d="M27.2,28.5c.4-.4.4-1,0-1.4l-2.6-2.6v-5.4c0-.5-.4-1-1-1s-1,.4-1,1v5.8c0,.3.1.5.3.7l2.9,2.9c.4.4,1,.4,1.4,0h0Z"/>
  </g>
</svg>