<?xml version="1.0" encoding="UTF-8"?>
<svg id="Layer_1" xmlns="http://www.w3.org/2000/svg" version="1.1" viewBox="0 0 47.5 49">
  <!-- Generator: Adobe Illustrator 29.2.1, SVG Export Plug-In . SVG Version: 2.1.0 Build 116)  -->
  <defs>
    <style>
      .st0 {
        fill: #fd0;
      }

      .st1 {
        fill: #fff;
      }

      .st2 {
        fill: #121617;
      }

      .st3 {
        fill: #fcd92c;
      }
    </style>
  </defs>
  <g>
    <circle class="st0" cx="23.7" cy="24.5" r="19.1"/>
    <path class="st0" d="M21.5,26.2"/>
  </g>
  <g>
    <path class="st1" d="M27.2,19.6h10.4c-1,0-1.8-.8-1.8-1.8s.8-1.8,1.8-1.8h-10.4c1,0,1.8.8,1.8,1.8s-.8,1.8-1.8,1.8"/>
    <polyline class="st3" points="30.7 29.4 30.7 29.4 30.7 29.4 30.7 29.4"/>
    <polyline class="st3" points="30.7 32.9 30.7 32.9 30.7 32.9 30.7 32.9"/>
    <path class="st1" d="M9.9,32.9h20.7c-1,0-1.8-.8-1.8-1.8s.8-1.8,1.8-1.8H9.9c1,0,1.8.8,1.8,1.8s-.8,1.8-1.8,1.8"/>
    <path class="st2" d="M28.9,17.8c0,1-.8,1.8-1.8,1.8s-1.8-.8-1.8-1.8.8-1.8,1.8-1.8,1.8.8,1.8,1.8"/>
    <path class="st2" d="M39.3,17.8c0,1-.8,1.8-1.8,1.8s-1.8-.8-1.8-1.8.8-1.8,1.8-1.8,1.8.8,1.8,1.8"/>
    <path class="st2" d="M11.7,31.2c0,1-.8,1.8-1.8,1.8s-1.8-.8-1.8-1.8.8-1.8,1.8-1.8,1.8.8,1.8,1.8"/>
    <path class="st2" d="M32.4,31.2c0,1-.8,1.8-1.8,1.8s-1.8-.8-1.8-1.8.8-1.8,1.8-1.8,1.8.8,1.8,1.8"/>
  </g>
</svg>