<?xml version="1.0" encoding="UTF-8"?>
<svg id="Layer_1" xmlns="http://www.w3.org/2000/svg" version="1.1" viewBox="0 0 47.5 49">
  <!-- Generator: Adobe Illustrator 29.2.1, SVG Export Plug-In . SVG Version: 2.1.0 Build 116)  -->
  <defs>
    <style>
      .st0 {
        fill: #fd0;
      }

      .st1 {
        fill: #231f20;
      }
    </style>
  </defs>
  <g>
    <circle class="st0" cx="23.7" cy="24.5" r="19.1"/>
    <path class="st1" d="M21.5,26.2"/>
  </g>
  <g>
    <g>
      <path d="M25.1,17.3c1.2-.5,2-1.6,2-3s-1.4-3.2-3.2-3.2-3.2,1.4-3.2,3.2c0,1.3.8,2.5,2,3-2.2,0-4,1.8-4,4.1v7.4h1.7v8.6h1.4v-10.9h-1.4v.8h-.2v-6c0-1.4,1.2-2.6,2.6-2.6h2.5c1.4,0,2.6,1.2,2.6,2.6v6h-.2v-.8h-1.4v10.9h1.4v-8.6h1.7v-7.4c0-2.2-1.8-4-4-4.1ZM22.1,14.3c0-1,.8-1.8,1.8-1.8,1,0,1.8.8,1.8,1.8s-.8,1.8-1.8,1.8-1.8-.8-1.8-1.8Z"/>
      <rect x="23.1" y="28.2" width="1.4" height="9.2"/>
    </g>
    <g>
      <path d="M13.6,22.1h3.9v-1.4h-1.4c.9-.5,1.6-1.4,1.6-2.5s-1.3-2.8-2.8-2.8-2.8,1.3-2.8,2.8c0,1.1.6,2,1.6,2.5h0c-1.8,0-3.2,1.4-3.2,3.2v6.6h1.7v5.3h1.4v-7.5h-1.4v.8h-.2v-5.1c0-1,.8-1.8,1.8-1.8ZM13.5,18.1c0-.8.6-1.4,1.4-1.4s1.4.6,1.4,1.4-.6,1.4-1.4,1.4-1.4-.6-1.4-1.4Z"/>
      <polygon points="17.7 29 17.7 28.2 16.3 28.2 16.3 35.7 17.7 35.7 17.7 30.4 18.4 30.4 18.4 29 17.7 29"/>
      <rect x="14.2" y="29.8" width="1.4" height="5.9"/>
    </g>
    <g>
      <path d="M35.4,23.9v5.1h-.2v-.8s-1.4,0-1.4,0v7.5s1.4,0,1.4,0v-5.3h1.7s0-6.6,0-6.6c0-1.8-1.4-3.2-3.2-3.2h0c.9-.5,1.6-1.4,1.6-2.5,0-1.5-1.3-2.8-2.8-2.8s-2.8,1.3-2.8,2.8.6,2,1.6,2.5h-1.4s0,1.4,0,1.4h3.9c1,0,1.8.8,1.8,1.8ZM32.4,19.5c-.8,0-1.4-.6-1.4-1.4s.6-1.4,1.4-1.4,1.4.6,1.4,1.4-.6,1.4-1.4,1.4Z"/>
      <polygon points="29.6 29 29.6 28.2 31 28.2 31 35.7 29.6 35.7 29.6 30.4 28.9 30.4 28.9 29 29.6 29"/>
      <rect x="31.7" y="29.8" width="1.4" height="5.9"/>
    </g>
  </g>
</svg>