<?xml version="1.0" encoding="UTF-8"?>
<svg id="Layer_1" xmlns="http://www.w3.org/2000/svg" version="1.1" viewBox="0 0 47.5 49">
  <!-- Generator: Adobe Illustrator 29.2.1, SVG Export Plug-In . SVG Version: 2.1.0 Build 116)  -->
  <defs>
    <style>
      .st0 {
        fill: #fd0;
      }
    </style>
  </defs>
  <g>
    <circle class="st0" cx="23.7" cy="24.5" r="19.1"/>
    <path class="st0" d="M21.5,26.2"/>
  </g>
  <g>
    <g>
      <path d="M31.6,15.4h-.1c-.1-.2-.2-.3-.3-.4-.5-.4-1-.7-1.6-1-.5-.3-1-.5-1.4-.7-4.7-1.9-10.2-.6-13.5,3.3h-.1c-.1.2-.2.4-.3.5,0,0-.1.2-.2.3l-.4-1.3c-.1-.5-.7-.8-1.1-.6s-.8.7-.6,1.1l1,3.5c0,.2.2.4.4.6.1,0,.3.1.4.1s.2,0,.3,0l3.6-1c.5-.1.8-.7.6-1.1s-.6-.8-1.1-.6l-1.5.4c0,0,0-.1.1-.2,0,0,.1-.2.2-.2h.1c2.8-3.4,7.4-4.5,11.4-2.9.4.1.8.3,1.2.6.5.3.9.6,1.4.9,0,0,.2.1.2.2h.1c2.2,2,3.5,4.8,3.5,7.8s.4.9.9.9.9-.4.9-.9c0-3.5-1.5-6.8-4.2-9.1h0Z"/>
      <path d="M34.8,25.5c-.6,0-1.1-.5-1.1-1.1,0-2.9-1.3-5.7-3.4-7.6h-.1c0-.2-.1-.2-.2-.3-.4-.3-.8-.6-1.3-.9-.4-.2-.8-.4-1.2-.6-3.9-1.6-8.5-.5-11.2,2.7v.2c-.1,0,.9-.3.9-.3.6-.2,1.2.2,1.3.7.2.6-.2,1.2-.7,1.3l-3.6,1c-.2,0-.6,0-.8,0-.3-.1-.4-.4-.5-.6l-1-3.5c0-.3,0-.6,0-.8.1-.3.4-.4.6-.5.3,0,.6,0,.8,0,.3.1.4.4.5.6l.3,1s0,0,0,0c0,0,.2-.2.3-.3h.1c3.4-4,8.9-5.4,13.7-3.5.4.2.9.4,1.4.7.6.3,1.1.7,1.6,1,0,0,0,0,0,0h0c0,0,.4.3.4.3,2.7,2.3,4.2,5.7,4.2,9.2s-.5,1.1-1.1,1.1ZM23.7,14.2c1.3,0,2.6.2,3.8.7.4.1.8.3,1.2.6.5.3,1,.6,1.4.9,0,0,.2.1.2.2h.1c2.3,2.1,3.6,4.9,3.6,7.9s.3.8.8.8.8-.3.8-.8c0-3.3-1.4-6.5-3.9-8.8l-.4-.3c-.1,0-.2-.2-.3-.3-.5-.4-1-.7-1.6-1-.5-.3-1-.5-1.4-.7-4.7-1.9-10-.5-13.3,3.3h-.1c0,.2-.2.4-.2.4,0,0,0,.1-.1.2l-.3.4-.5-1.6c0-.2-.2-.4-.4-.5-.2-.1-.4-.1-.6,0-.2,0-.4.2-.5.4-.1.2-.1.4,0,.6l1,3.5c0,.2.2.4.4.5.2,0,.4.1.6,0l3.6-1c.4-.1.7-.5.5-1-.1-.4-.5-.6-1-.5l-2,.6.3-.4s0,0,0,0c0,0,0,0,0,0,0,0,0-.1.1-.2l.2-.2c2-2.3,4.9-3.6,7.8-3.6Z"/>
    </g>
    <g>
      <path d="M15.9,33.6h.1c.1.2.2.3.3.4.5.4,1,.7,1.6,1,.5.3,1,.5,1.4.7,1.4.6,2.9.8,4.4.8,3.4,0,6.8-1.5,9.1-4.2h.1c.1-.2.2-.4.3-.5,0,0,.1-.2.2-.3l.4,1.3c.1.4.5.7.9.7s.2,0,.3,0c.5-.1.8-.7.6-1.1l-1-3.6c0-.2-.2-.4-.4-.6-.2-.1-.5-.1-.7,0l-3.6,1c-.5.1-.8.7-.6,1.1s.7.8,1.1.6l1.5-.4c0,0,0,.1-.1.2,0,0-.1.2-.2.2h-.1c-2.8,3.4-7.4,4.5-11.4,2.9-.4-.1-.8-.3-1.2-.6-.5-.3-.9-.6-1.4-.9,0,0-.2-.1-.2-.2h-.1c-2.2-2-3.5-4.8-3.5-7.8s-.4-.9-.9-.9-.9.4-.9.9c0,3.5,1.5,6.8,4.2,9.1h0Z"/>
      <path d="M23.7,36.6c-1.6,0-3.1-.3-4.5-.9-.4-.2-.9-.4-1.4-.7-.6-.4-1.1-.7-1.6-1,0,0-.2-.2-.3-.3l-.2-.2h0c-2.6-2.3-4.1-5.7-4.1-9.1s.5-1.1,1.1-1.1,1.1.5,1.1,1.1c0,2.9,1.3,5.7,3.4,7.6h.1c0,.2.2.2.2.3.4.3.9.6,1.3.9.4.2.8.4,1.2.6,3.9,1.6,8.5.5,11.2-2.7h.1c0-.2,0-.2,0-.2l-1,.3c-.3,0-.6,0-.8,0-.3-.1-.4-.4-.5-.6-.2-.6.2-1.2.7-1.3l3.6-1c.3,0,.6,0,.8,0,.2.1.4.4.5.6l1,3.6c0,.3,0,.6,0,.8-.1.3-.4.4-.6.5,0,0-.2,0-.3,0-.5,0-.9-.3-1-.8l-.3-1s0,0,0,0c0,0-.2.2-.3.3h-.1c-2.3,2.8-5.7,4.3-9.2,4.3ZM16.1,33.5h0c.1.1.2.2.3.3.4.4.9.7,1.6,1,.5.3,1,.5,1.4.7,1.4.6,2.8.8,4.4.8,3.4,0,6.7-1.5,9-4.1h.1c0-.2.2-.4.2-.4,0,0,0-.1.1-.2l.3-.4.5,1.6c0,.3.4.6.7.6s.1,0,.2,0c.2,0,.4-.2.5-.4.1-.2.1-.4,0-.6l-1-3.6c0-.2-.2-.4-.4-.5-.2,0-.4-.1-.6,0l-3.6,1c-.4.1-.7.5-.5,1,0,.2.2.4.4.5.2.1.4.1.6,0l2-.6-.3.4s0,0,0,0c0,0,0,0,0,0,0,0-.1.2-.2.2h-.1c-2.9,3.4-7.5,4.6-11.6,3-.4-.2-.8-.4-1.2-.6-.5-.3-.9-.6-1.4-.9,0,0-.2-.1-.2-.2h-.1c-2.3-2-3.6-4.9-3.6-7.9s-.3-.8-.8-.8-.8.3-.8.8c0,3.4,1.5,6.7,4.1,9h0c0,0,0,0,0,0Z"/>
    </g>
    <g>
      <path d="M25.7,23.9h0c0,.2-.3.3-.5.3h-5.9c-.4,0-.7-.4-.5-.8h0c0-.2.3-.4.5-.4h5.9c.4,0,.7.4.5.8ZM24.7,26.1h0c0,.2-.3.3-.5.3h-4.9c-.4,0-.7-.4-.5-.8h0c0-.2.3-.4.5-.4h4.9c.4,0,.7.4.5.8ZM27.2,20.7l-.3.6c-.1.3-.5.4-.8.2s0,0,0,0c-.2-.1-.5-.2-.7-.3-.3,0-.5-.1-.9-.1-.5,0-1,.1-1.4.4-.4.3-.7.7-.9,1.3-.2.6-.3,1.3-.3,2.1s.1,1.6.3,2.1c.2.6.5,1,.9,1.3.4.3.9.4,1.4.4s.6,0,.9-.1c.3,0,.5-.2.7-.3,0,0,0,0,0,0,.3-.2.7,0,.8.2l.3.6c.1.3,0,.6-.2.7s-.6.3-.9.4c-.5.2-1,.2-1.6.2-.9,0-1.7-.2-2.4-.7-.7-.4-1.2-1.1-1.6-1.9-.4-.8-.6-1.8-.6-3s.2-2.2.6-3c.4-.8.9-1.5,1.6-1.9.7-.4,1.5-.7,2.4-.7s1.1,0,1.6.3c.3.1.6.3.9.5s.3.5.2.7Z"/>
      <path d="M24.5,30.5c-.9,0-1.8-.2-2.5-.7-.7-.5-1.3-1.1-1.7-2-.2-.4-.3-.8-.4-1.2h-.6c-.2,0-.5-.1-.6-.3s-.2-.4,0-.7c.1-.3.4-.5.7-.5h.4c0-.1,0-.2,0-.4s0-.3,0-.4h-.4c-.2,0-.5-.1-.6-.3-.1-.2-.2-.4,0-.7.1-.3.4-.5.7-.5h.6c.1-.4.2-.9.4-1.2.4-.9,1-1.5,1.7-2s1.6-.7,2.5-.7,1.1,0,1.6.3c.3.1.7.3,1,.5.3.2.4.6.2.9l-.3.6c0,.2-.2.3-.4.4-.2,0-.4,0-.6,0h0c-.2-.2-.5-.3-.7-.3-.2,0-.5-.1-.8-.1-.5,0-.9.1-1.3.4-.4.3-.7.7-.9,1.2,0,0,0,.2,0,.3h3c.2,0,.5.1.6.3s.2.5,0,.7h0c-.1.3-.4.4-.7.4h-3.2c0,.1,0,.3,0,.4s0,.2,0,.4h2.2c.2,0,.5.1.6.3.1.2.1.5,0,.7h0c-.1.3-.4.4-.6.4h-2c0,0,0,.2,0,.3.2.5.5.9.9,1.2s.8.4,1.3.4.6,0,.8-.1c.2,0,.5-.2.7-.3.2-.1.4-.1.6,0,.2,0,.4.2.4.4l.3.6c.2.3,0,.7-.2.9-.3.2-.6.3-1,.5-.5.2-1,.3-1.6.3ZM20.2,26.6c0,.4.2.8.4,1.1.4.8.9,1.4,1.6,1.9s1.5.6,2.3.6,1,0,1.5-.2c.3-.1.6-.3.9-.4.2-.1.2-.3.1-.5l-.3-.6c0-.1-.1-.2-.3-.2s-.2,0-.3,0c-.2.1-.5.3-.8.3-.3,0-.6.1-.9.1-.6,0-1.1-.1-1.5-.4-.4-.3-.8-.7-1-1.3,0-.1,0-.2-.1-.4h-1.7ZM22.2,26.3h2.1c.2,0,.3,0,.4-.2h0c0-.1,0-.3,0-.4,0-.1-.2-.2-.3-.2h-2.2c0,.3,0,.6.1.8ZM20.2,26.3h1.7c0-.3,0-.5-.1-.8h-1.7c0,.3,0,.6.1.8ZM19.4,25.5c-.2,0-.3.1-.4.3,0,.1,0,.3,0,.4,0,.1.2.2.3.2h.5c0-.3,0-.6-.1-.8h-.4ZM20.1,25.2h1.7c0-.1,0-.2,0-.4s0-.3,0-.4h-1.7c0,.1,0,.3,0,.4s0,.2,0,.4ZM22,24.1h3.2c.2,0,.3,0,.4-.2,0-.1,0-.3,0-.4,0-.1-.2-.2-.3-.2h-3.1c0,.3-.1.5-.1.8ZM20.1,24.1h1.7c0-.3,0-.6.1-.8h-1.7c0,.3,0,.5-.1.8ZM19.4,23.3c-.2,0-.3.1-.4.3,0,.1,0,.3,0,.4,0,.1.2.2.3.2h.4c0-.3,0-.6.1-.8h-.5ZM20.2,23h1.7c0-.1,0-.3.1-.4.2-.6.6-1,1-1.3.4-.3.9-.4,1.5-.4s.6,0,.9.1c.3,0,.5.2.7.3h0c0,0,.2.1.3,0,.1,0,.2-.1.3-.2l.3-.6c0-.2,0-.4-.1-.5-.3-.2-.6-.3-.9-.5-.5-.2-1-.3-1.5-.3-.9,0-1.7.2-2.3.6-.7.4-1.2,1.1-1.6,1.9-.2.3-.3.7-.4,1.1Z"/>
    </g>
  </g>
</svg>